<?xml version="1.0" encoding="UTF-8" standalone="no"?>
<svg width="456" height="456" viewBox="0 0 456 456" version="1.1"
     xmlns="http://www.w3.org/2000/svg" xml:space="preserve">

  <!-- Steam lines (3 wavy lines rising from bowl) -->
  <path d="M 158,130 C 158,115 168,115 168,100 C 168,85 158,85 158,70"
        fill="none" stroke="#FFD700" stroke-width="9" stroke-linecap="round" opacity="0.9"/>
  <path d="M 228,118 C 228,103 238,103 238,88 C 238,73 228,73 228,58"
        fill="none" stroke="#FFD700" stroke-width="9" stroke-linecap="round" opacity="0.9"/>
  <path d="M 298,130 C 298,115 308,115 308,100 C 308,85 298,85 298,70"
        fill="none" stroke="#FFD700" stroke-width="9" stroke-linecap="round" opacity="0.9"/>

  <!-- Bowl body (main ellipse shape) -->
  <path d="M 80,200 L 95,300 Q 100,360 228,368 Q 356,360 361,300 L 376,200 Z"
        fill="white" opacity="0.97"/>

  <!-- Bowl rim (top oval) -->
  <ellipse cx="228" cy="200" rx="148" ry="30"
           fill="white" stroke="#FFD700" stroke-width="8"/>

  <!-- Noodles / food inside bowl (amber/golden) -->
  <ellipse cx="228" cy="200" rx="130" ry="20" fill="#F59E0B" opacity="0.5"/>

  <!-- Noodle swirl lines -->
  <path d="M 160,195 Q 185,185 210,195 Q 235,205 260,195 Q 285,185 300,195"
        fill="none" stroke="#D97706" stroke-width="5" stroke-linecap="round" opacity="0.8"/>
  <path d="M 155,205 Q 180,215 210,205 Q 240,195 270,205 Q 295,210 305,205"
        fill="none" stroke="#D97706" stroke-width="4" stroke-linecap="round" opacity="0.6"/>

  <!-- Bowl base / foot -->
  <rect x="188" y="360" width="80" height="16" rx="8" fill="white" opacity="0.8"/>

  <!-- Location pin at bottom center -->
  <path d="M 228,390 C 228,390 200,360 200,345 C 200,330 213,320 228,320 C 243,320 256,330 256,345 C 256,360 228,390 228,390 Z"
        fill="#FFD700"/>
  <circle cx="228" cy="344" r="10" fill="#1565C0"/>

</svg>